<?xml version="1.0" encoding="UTF-8" standalone="no"?><svg xmlns:dc="http://purl.org/dc/elements/1.1/" xmlns:cc="http://creativecommons.org/ns#" xmlns:rdf="http://www.w3.org/1999/02/22-rdf-syntax-ns#" xmlns:svg="http://www.w3.org/2000/svg" xmlns="http://www.w3.org/2000/svg" version="1.1" id="svg2" xml:space="preserve" viewBox="0 0 48 48"><metadata id="metadata8"><rdf:RDF><cc:Work rdf:about=""><dc:format>image/svg+xml</dc:format><dc:type rdf:resource="http://purl.org/dc/dcmitype/StillImage"/></cc:Work></rdf:RDF></metadata><defs id="defs6"><clipPath clipPathUnits="userSpaceOnUse" id="clipPath18"><path d="M 0,36 H 36 V 0 H 0 Z" id="path16"/></clipPath></defs><g id="g10" transform="matrix(1.3333333,0,0,-1.3333333,0,48)"><g id="g12"><g id="g14" clip-path="url(#clipPath18)"><g id="g20" transform="translate(22.877,13.2056)"><path d="m 0,0 c -1.535,0 -2.795,1.37 -2.795,3.041 0,1.671 1.233,3.041 2.795,3.041 1.562,0 2.794,-1.37 2.794,-3.041 C 2.794,1.37 1.562,0 0,0 m -10,0 c -1.535,0 -2.795,1.37 -2.795,3.041 0,1.671 1.233,3.041 2.795,3.041 1.562,0 2.822,-1.37 2.794,-3.041 C -7.206,1.37 -8.438,0 -10,0 M 0.931,-4.493 c 0.822,-1.042 1.808,-2.219 1.808,-2.219 6.055,0.191 8.384,4.164 8.384,4.164 0,8.822 -3.945,15.972 -3.945,15.972 -3.946,2.959 -7.699,2.877 -7.699,2.877 l -0.383,-0.438 c 4.657,-1.425 6.821,-3.48 6.821,-3.48 -2.849,1.562 -5.643,2.329 -8.246,2.631 -1.973,0.219 -3.863,0.164 -5.534,-0.056 -0.165,0 -0.302,-0.027 -0.466,-0.054 -0.959,-0.082 -3.288,-0.439 -6.219,-1.726 -1.014,-0.466 -1.617,-0.795 -1.617,-0.795 0,0 2.274,2.165 7.206,3.589 l -0.274,0.329 c 0,0 -3.753,0.082 -7.699,-2.877 0,0 -3.945,-7.15 -3.945,-15.972 0,0 2.301,-3.973 8.356,-4.164 0,0 1.014,1.233 1.836,2.274 -3.48,1.041 -4.794,3.232 -4.794,3.232 0,0 0.273,-0.191 0.767,-0.465 0.027,-0.028 0.054,-0.055 0.109,-0.082 0.082,-0.056 0.165,-0.083 0.247,-0.138 0.685,-0.383 1.37,-0.685 2,-0.931 1.123,-0.438 2.465,-0.877 4.027,-1.178 2.055,-0.384 4.466,-0.521 7.096,-0.028 1.288,0.219 2.603,0.603 3.972,1.178 0.959,0.357 2.028,0.877 3.151,1.617 0,0 -1.369,-2.246 -4.959,-3.26" id="path22" fill="currentColor" fill-opacity="1" fill-rule="nonzero" stroke="none"/></g></g></g></g></svg>