<svg xmlns="http://www.w3.org/2000/svg" xml:space="preserve" width="42.667" height="42.667"><defs><clipPath clipPathUnits="userSpaceOnUse" id="a"><path d="M0 32h32V0H0z"/></clipPath></defs><g clip-path="url(#a)" transform="matrix(1.33333 0 0 -1.33333 0 42.667)"><path d="m0 0-2.699-1.676-1.098-.676-1.376-.859-.758-.462-.896-.558-.469-.29-.8-.484a2.54 2.54 0 0 0-.278-.15.348.348 0 0 0-.16-.075 1.045 1.045 0 0 0-1.024.257c-.053.054-.095.108-.138.161a1.073 1.073 0 0 0-.192.613v8.988c0 1.88 2.144 2.942 3.637 1.815l2.837-2.159L.085 1.771C.693 1.32.64.397 0 0" style="fill:#3d3c3c;fill-opacity:1;fill-rule:nonzero;stroke:none" transform="translate(14.357 22.934)"/><path d="M0 0v-8.988c0-.151-.032-.29-.085-.419-.022-.065-.064-.129-.097-.183a.288.288 0 0 0-.053-.075l-.096-.097a.813.813 0 0 0-.32-.215c-.053-.021-.096-.043-.149-.043a.777.777 0 0 0-.267-.043.899.899 0 0 0-.288.043.4.4 0 0 0-.17.076 9.417 9.417 0 0 0-.171.086l-.363.214-1.579.978-.33.204-.747.462-.885.548-.491.311-1.098.676-2.699 1.676a1.073 1.073 0 0 0-.086 1.771l3.499 2.674 2.837 2.159C-2.144 2.942 0 1.88 0 0" style="fill:#3d3c3c;fill-opacity:1;fill-rule:nonzero;stroke:none" transform="translate(27.53 27.723)"/><path d="M0 0c-5.039 4.598-13.158 4.599-18.198 0-5.1-4.652-5.1-12.229 0-16.881 5.039-4.597 13.157-4.598 18.198 0C5.1-12.229 5.1-4.652 0 0" style="fill:#727272;fill-opacity:1;fill-rule:nonzero;stroke:none" transform="translate(25.1 22.33)"/><path d="M0 0h-1.001a.615.615 0 0 0-.614.615V.76l.606.88c.414.602-.015 1.424-.743 1.424h-1.862c-.728 0-1.157-.822-.743-1.424l.605-.88V.615A.615.615 0 0 0-4.365 0h-1.002c-.59 0-1.068-.481-1.068-1.074 0-.593.478-1.074 1.068-1.074 1.062 0 1.813-.099 2.684.579.867-.675 1.628-.579 2.683-.579.59 0 1.068.481 1.068 1.074C1.068-.481.59 0 0 0" style="fill:#3d3c3c;fill-opacity:1;fill-rule:nonzero;stroke:none" transform="translate(18.683 9.206)"/><path d="M0 0c-.155 0 .453-.114-7.34 1.475a1.074 1.074 0 0 0 .425 2.104L.211 2.127c.579-.118.953-.685.835-1.267A1.07 1.07 0 0 0 0 0" style="fill:#3d3c3c;fill-opacity:1;fill-rule:nonzero;stroke:none" transform="translate(29.12 5.77)"/><path d="M0 0a1.07 1.07 0 0 0-1.046.86 1.074 1.074 0 0 0 .835 1.267l7.126 1.452a1.074 1.074 0 0 0 .425-2.104C-.403-.104.155 0 0 0" style="fill:#3d3c3c;fill-opacity:1;fill-rule:nonzero;stroke:none" transform="translate(2.923 5.77)"/><path d="M0 0h-9.162c-.59 0-1.068.48-1.068 1.073a1.07 1.07 0 0 0 1.068 1.074H0c.59 0 1.068-.48 1.068-1.074A1.07 1.07 0 0 0 0 0" style="fill:#3d3c3c;fill-opacity:1;fill-rule:nonzero;stroke:none" transform="translate(10.23 9.745)"/><path d="M0 0h-9.119c-.59 0-1.069.48-1.069 1.073 0 .594.479 1.074 1.069 1.074H0c.59 0 1.068-.48 1.068-1.074A1.07 1.07 0 0 0 0 0" style="fill:#3d3c3c;fill-opacity:1;fill-rule:nonzero;stroke:none" transform="translate(30.932 9.745)"/><path d="M0 0c0-.727-.583-.238-1.302-.238-.719 0-1.302-.489-1.302.238 0 .726.583 1.314 1.302 1.314C-.583 1.314 0 .726 0 0" style="fill:#3d3c3c;fill-opacity:1;fill-rule:nonzero;stroke:none" transform="translate(11.89 16.298)"/><path d="M0 0c0-.736-.59-.255-1.319-.255-.728 0-1.319-.481-1.319.255 0 .735.591 1.331 1.319 1.331C-.59 1.331 0 .735 0 0" style="fill:#3d3c3c;fill-opacity:1;fill-rule:nonzero;stroke:none" transform="translate(22.73 16.298)"/></g></svg>